<?xml version="1.0" encoding="UTF-8"?>
<svg id="Calque_1" data-name="Calque 1" xmlns="http://www.w3.org/2000/svg" viewBox="0 0 957.47 196.41">
  <defs>
    <style>
      .cls-1 {
        fill: #00674f;
      }
    </style>
  </defs>
  <path class="cls-1" d="M55.6,161.32c-.37,10.98-4.74,21.25-4.92,32.85H0c.87-12.18-1.6-24.09,4.52-36.46,16.91-34.24,31.71-69.57,51.16-102.48,11.1-18.76,22.38-37.61,38.66-52.68,15.25-2.05,30.55-.6,45.83-.87,14.99-.27,29.99.11,44.97-.15,5.25-.09,7.31,1.6,7.17,6.98-.26,11.25-.09,22.49-.06,33.71.25,5.73-5.35,8.4-6.93,13.19-6.56,9.78-10.34,10.74-15.82,3.05-13.66-19.15-31.98-28.76-55.46-28.68-1.02,0-2.02-.26-3.01-.48-16.32-8.03-19.07-7.79-31.89,5.81-16.96,17.98-26.8,40.4-37.29,62.28-9.62,20.07-17.5,40.9-25.65,61.61-.97,2.46-2.66,4.88-1.06,8.42,9.04.17,17.76-2.73,26.61-4.74,4.55-1.03,8.96-3.78,13.85-1.37"/>
  <path class="cls-1" d="M55.6,161.32c-14.58,4.79-29.44,8.16-45.27,10.2-.26-8.39,3.74-14.56,6.26-20.86,11.37-28.57,22.95-57.12,37.8-84.11,7.51-13.63,15.41-27.08,27.19-37.82,10.86-9.91,17.76-10.56,29.22-1.39,4.08,2.25,6.58,5.76,8.22,10.05,1.61,4.26.47,7.14-3.88,8.66-19.28,11.78-30.38,29.92-39.09,49.98-8.33,19.19-13.88,39.24-18.52,59.58-.44,1.97-.37,4.13-1.94,5.71"/>
  <path class="cls-1" d="M547.67,141.42v51.67c-4.74,1.96-8.92,1.37-13.58.66v-112.49c4.32-1.22,8.29-.79,13.25-.37v45.44h51.97v-44.8c4.98-1.71,8.97-.65,13.51-1.13v112.5q-5.89,1.45-13.1.28v-51.76h-52.05Z"/>
  <path class="cls-1" d="M514.18,110.79c-3.74,3.03-7.76,2.62-10.66,4.21-3.36-1.05-3.54-3.78-4.29-5.92-7.75-22.26-37.25-22.8-49.93-5.2-4.79,6.62-6.55,14.25-7.65,22.06-2.02,14.19-1.08,28.1,5.49,41.07,6.64,13.1,21.25,19.13,34.66,14.9,7.24-2.29,12.62-6.84,16.03-13.51,2.17-4.21,3.74-8.71,5.68-13.34,4.61-.38,8.42,1.81,12.61,3.26-.86,5.91-2.77,11.02-5.4,15.81-7.91,14.37-19.74,22.17-36.58,22.12-17.29-.05-31.01-6.45-38.57-22.31-11.37-23.82-12.59-48.29-.55-72.26,9.34-18.58,31.76-27.44,51.72-21.54,14.31,4.23,22.47,13.28,27.45,30.65"/>
  <path class="cls-1" d="M759.39,110.2c-.76.8-1.13,1.54-1.69,1.73-3.19,1.11-6.41,2.1-9.25,3.03-3.26-1.07-3.33-3.84-4.12-5.97-8.23-22.26-35.79-21.74-47.96-7.42-1.76,2.08-3.59,4.28-4.61,6.76-8.03,19.63-8.53,39.42.59,58.73,5.32,11.25,15.36,16.54,27.64,16.14,11.71-.38,19.65-7.11,24.44-17.57,1.54-3.37,2.67-6.93,4.02-10.47,4.52-.74,7.97,2.01,11.9,2.42-1.62,26.58-25.73,43.66-52.36,37.61-11.3-2.56-20.49-8.33-25.86-18.59-12.67-24.18-14.2-49.22-2.4-74.06,8.8-18.53,30.48-28.02,50.23-23.03,16.18,4.09,25.29,15.16,29.44,30.69"/>
  <path class="cls-1" d="M115.16,46.05c.28-2.2,4.68-1.94,2.5-6.34-2.12-4.23-5.27-7.89-6.85-12.38,5.82.14,11.7-.3,17.41.53,13.84,2.01,24.5,10.61,35.47,18.37,2.78,1.96,4.88,4.72,6.08,8.07,1.18,3.31,3.26,5.97,6.52,7.84,4.61-.59,4.7-5.14,6.74-8.02,4.97-2.35,7.79.85,7.75,4.72-.26,20.76,4.49,41.98-9.46,61.15-9.78,13.45-20.97,23-37.7,25.19-2.66-6.73-3-13.89-3.93-20.95-1.37-2.13-1.14-4.21,1.41-4.72,16.82-3.42,21.04-17.21,27.17-31.65-11.11-.16-13.65-6.89-16.41-15.13-4.15-12.39-14.74-19.07-27.18-23.34-.81,1.28.73,4.96-3.1,4.53-2.37-2.42-1.5-7.52-6.42-7.86"/>
  <path class="cls-1" d="M121.59,53.92c3.77-2.02.63-5.18.37-8.02,10.98,3.52,20.42,7.67,27.11,16.45,3.52,4.61,6.48,9.34,7.22,15.31.9,7.31,1.91,7.84,8.91,5.96,1.26-.34,2.6-.43,4.33-.71,2.66,7.94-1.66,13.92-4.95,19.86-2.58,4.68-5.86,9.08-9.45,13.03-3.57,3.94-7.51,8.06-14.01,5.11-.96-.43-1.19,2.07-1.41,3.35-3.96-7.23-3.75-15.53-5.94-23.24-4.43-15.59-8.15-31.38-12.17-47.08"/>
  <path class="cls-1" d="M638.83,80.87c4.27-.5,8.22-.65,12.18.06,1.55,7.9,1.73,102.34.2,112.89-1.18.16-2.46.46-3.77.49-2.67.09-5.35.02-8.61.02v-113.47Z"/>
  <path class="cls-1" d="M143.63,145.19c.34-2.45.71-4.72,4.11-4.59,11.87.52,19.23-7.16,26.22-15.05,3.31-3.74,5.98-8.15,8.4-12.55,4.26-7.71,7.49-15.69,6.94-24.95-.53-8.82-.2-17.71-.09-26.58.06-4.38-1.19-7.37-6.19-7.35,2.03-3.43,2.5-8.39,8.12-8.35,2.44,13.1.71,26.33,1.03,39.48.32,13.25.05,26.5.09,39.73-.04,1-.23,2.01-.3,3.01-.59,10.52-.7,20.98-11.34,27.64-8.87,5.55-16.71,13.02-28.28,12.34-1.67-.1-3.09,1.3-4.64,1.98-2.81-8.02-3.81-16.33-4.08-24.77"/>
  <path class="cls-1" d="M147.71,169.96c.2-1.67.38-3.33.65-5.77,13.98,5.25,22.25-5.38,31.89-11.79,6.4-4.25,10.73-10.29,9.01-18.9-.37-1.85-.69-4.18,1.91-5.17,1.91,22.02,1.5,44.06.2,66.1h-40.38c-1.6-8.31-3.56-16.22-3.27-24.47"/>
  <path class="cls-1" d="M606.3,8.21v14.53c4.9,1.7,10.03.55,15,.81,2.49.14,5,.07,5.18,3.43.22,4.12-2.69,3.95-5.57,4.07-4.7.21-9.5-.8-14.97.92,0,5.82-.01,11.58.01,17.34.01,2.78-.8,4.69-4.07,4.5-2.74-.16-3.3-1.93-3.31-4.17V.65h61.37c2.05,0,4.12.01,6.18-.01,2.39-.02,3.99.94,4.11,3.48.12,2.52-1.37,3.84-3.72,3.91-4.39.12-8.8.04-14.26.04,0,8.97-.01,17.82,0,26.64,0,3.09.52,6.3-.14,9.24-.75,3.4,3.3,9.6-3.72,9.68-7.79.1-3.88-6.62-4.1-10.14-.58-9.23-.15-18.52-.23-27.78-.01-2.31.74-4.81-1.43-7.51h-36.33Z"/>
  <path class="cls-1" d="M436.35,31.59c0,6.6-.02,12.38.01,18.16.02,3.05-1.46,4.29-4.44,4.11-2.62-.15-3.53-1.64-3.52-4.02.01-1.37.01-2.73.01-4.11.01-14.67,0-29.35,0-44.11,4.8-1.5,8.12-2.04,7.96,4.07-.12,5.45-.02,10.9-.02,16.89,9.36,2.13,18.51.34,27.8,1.17,2.49-5.93,1.22-11.78,1.22-17.42s2.15-6.63,7.46-4.98v50.96c-6.93,1.86-7.12,1.83-7.3-3.9-.18-5.41-.05-10.84-.05-16.82h-29.12Z"/>
  <path class="cls-1" d="M284.33,11.16c-4.76-1.34-9.23-3.09-13.84-3.81-13.83-2.18-24.67,7.26-24.26,20.75.36,11.52,9.81,19.72,22.16,19.08,3.03-.16,6.08-.6,8.77-2.24,1.67-2.95,1.09-5.98.74-8.77-1.38-2.56-3.62-1.82-5.56-1.94-2.12-.14-4.21-.32-4.34-3.1-.17-3.47,2.25-3.69,4.81-3.69,4.04.01,8.08,0,13.33,0,0,6.67-.12,12.71.04,18.74.09,2.9-1.25,4.48-3.74,5.35-8.23,2.87-16.66,3.99-25.15,1.48-12.49-3.7-19.21-12.96-19.15-25.86.06-12.53,7.32-22.46,19.38-25.85,8.15-2.29,16.25-1.39,24.12,1.69,4.09,1.61,4.72,4.31,2.71,8.19"/>
  <path class="cls-1" d="M501.63,41.11c3.81,2.03,6.36,4.97,10.13,5.7,4.85.96,9.12-.14,10.73-3.56,2.02-4.23-.2-7.31-3.37-9.7-3.54-2.65-7.52-4.74-11.04-7.42-7.99-6.07-9.62-13.76-4.6-20.33,4.45-5.83,15.97-7.65,22.5-3.56q2.18,1.37,2.31,8.29c-2.9.52-4.81-1.83-7.16-2.66-3.42-1.21-6.66-1.39-9.83.54-3.56,2.17-4.2,5.25-1.64,8.59,1.92,2.47,4.55,4.1,7.32,5.49,4.01,2.03,7.8,4.42,10.52,8.02,3.53,4.7,4.44,9.94,1.81,15.42-2.6,5.41-6.89,8.17-13.02,8.27-3.86.06-7.46-.63-10.93-2.24-4.56-2.12-5.18-5.59-3.74-10.86"/>
  <path class="cls-1" d="M191.37,194.43c-.07-22.04-.14-44.07-.21-66.11-.01-27.51-.01-55.03-.02-82.55V2.56h-96.8c.8-1.99,2.52-1.96,4.25-1.96,30.54.01,61.08.01,91.62.04.63,0,1.24.42,1.97.68,2.1,2.26,1.19,5.14,1.19,7.76.04,59.02.02,118.04-.11,177.06-.01,2.77,1.71,6.23-1.88,8.29"/>
  <path class="cls-1" d="M483.62,1.63c2.88-1.87,4.86-1.45,7.25-.81,1.65,7.21.54,14.69.73,22.09.21,8.19.01,16.39.09,24.57.01,2.9-.04,5.68-3.91,5.8-3.78.11-4.21-2.37-4.18-5.46.07-15.33.04-30.66.04-46.18"/>
  <path class="cls-1" d="M948.54,99.84c-4.91-10.11-13.56-16.84-24.68-18.31-16.56-2.15-33.28-1-50.16-.82v113.05c15.81,0,31.19.76,46.46-.23,12.74-.81,22.95-7.73,28.48-19.39,11.7-24.63,11.87-49.67-.1-74.29M941.91,151.19c-.52,3.36-1.53,6.68-2.56,9.94-3.88,12.13-12.06,18.86-24.99,19.13-8.56.18-17.14.04-25.68.04-2.12-7-2.56-74.66-.49-86.24,8.72,0,17.62-.6,26.41.15,14.01,1.18,22.44,8.66,26.13,22.28,3.1,11.43,2.95,23.08,1.18,34.7"/>
  <path class="cls-1" d="M382.92,142.78c3.78-1.44,6.98-2.45,9.98-3.85,12.45-5.82,18.63-18.75,16.17-33.53-2.34-14.05-10.58-23.01-24.12-24.18-18.4-1.6-36.86-.64-55.59-.55v113.23h12.6v-49.21c4.53-1.86,8.34-.96,12.03-1.23,11.47-.81,19.75,3.94,25.35,13.98,4.82,8.67,10.98,16.72,14.89,25.77,4.09,9.46,10.1,12.98,19.82,11.1.89-.17,1.72-.62,3.43-1.24-11.54-16.87-17.67-36.7-34.56-50.28M379.22,129.79c-11.86.94-23.86.22-37.27.22,0-10.82-.01-20.99.02-31.18,0-1.65-.39-3.42,1.54-5.48,11.31,0,23.21-.53,35.04.16,10.41.62,16.44,7.55,16.65,17.24.22,10.42-5.49,18.21-15.98,19.03"/>
  <path class="cls-1" d="M820.98,80.71c-5.54-.07-10.23-.81-15.1.54-12.76,37.42-25.42,74.56-38.16,111.95,4.84,1.91,9.14,1.08,13.78.85,4.69-11.23,6.73-23.13,12.08-34.33,12.07,0,24.03.16,35.98-.1,4.28-.09,6.14,1.91,7.28,5.57,1.85,5.88,3.89,11.69,5.86,17.52q4.26,12.58,19.08,10.62c-13.66-37.66-27.22-75.11-40.81-112.62M797.38,146.73c5.34-17.16,10.38-33.38,15.45-49.59.09-.23.54-.36,1.18-.73,5.39,16.57,10.77,33.07,16.38,50.31h-33.01Z"/>
  <path class="cls-1" d="M314.62,187.46c-11.55-31.84-23.16-63.68-34.74-95.52q-4.45-12.23-19.13-10.62c-12.64,37.11-25.4,74.55-38.35,112.59,2.37.2,3.7.43,5.02.41,9.25-.21,8.79,1.88,12.05-8.58,2.14-6.88,4.47-13.69,6.53-20.59,1.13-3.75,3.05-5.62,7.31-5.54,11.96.25,23.94.09,36.27.09,4.13,11.66,8.08,22.87,12.1,34.21,5.12.54,9.79.95,14.41-.28.5-2.53-.79-4.29-1.46-6.16M252.19,146.92c5.19-17.88,11.59-33.96,15.87-52.56,6.1,18.53,11.57,35.17,17.24,52.38-11.01.85-21.43.6-33.11.18"/>
  <path class="cls-1" d="M361.76,4.5c-.79-1.75-1.41-3.86-4.05-4.09-3.04-.26-4.29,1.7-5.25,3.96-5.38,12.59-10.62,25.22-16.11,37.76-.84,1.89-.31,5.11-4.05,5.28-4.33-5.99-7.55-12.91-13.94-18.94,7.28-4.86,9.81-10.84,7.03-18.27-2.83-7.6-9.4-9.3-16.62-9.49-4.04-.1-8.07-.01-12.98-.01,0,16.51.01,32.18-.02,47.84,0,3,.23,5.62,4.27,5.23,4.21-.41,3.29-3.32,3.21-6.1-.14-5.36-.95-10.8.53-15.92,5.71-2.25,9.02.9,11.79,4.47,3.35,4.32,6.34,8.93,9.28,13.55,1.57,2.5,3.29,3.94,6.47,4.11,7.32.42,8.21.41,11.12-7.39,2.33-6.19,5.46-8.64,12.65-8.96,10.02-.42,16.25,2.04,18.78,12.22,1.19,4.82,4.69,4.9,9.11,2.9-7.19-16.34-14.14-32.26-21.2-48.15M316.47,19.52c-3.08,4.97-7.95,4.43-13.6,3.59V7.7c5.22-1.29,9.77-.68,13.24,3.15,2.23,2.45,2.08,5.87.36,8.67M350.01,31.04c1.17-6.42,3.68-11.78,6.78-17.73,3.95,5.34,5.44,11.07,8.83,17.73h-15.61Z"/>
  <path class="cls-1" d="M563.15.18c-16.18.07-27.88,11.01-28.16,26.33-.3,15.81,11.62,27.57,27.97,27.64,16.76.07,28.45-10.98,28.52-26.96.06-16.14-11.41-27.08-28.32-27.01M562.87,47.22c-11.47-.02-20.08-8.67-20.07-20.14,0-11.59,8.53-20.09,20.09-20.04,11.46.05,20.27,8.81,20.24,20.09-.02,11.26-8.97,20.12-20.26,20.09"/>
  <path class="cls-1" d="M422.07,14.21c-.58-7.43-5.94-12.78-14.29-13.41-6.02-.46-12.1-.09-18.44-.09v52.54c7.31-.23,7.37-.25,7.41-5.28.04-5.38.01-10.75.01-16.41,4.86-.48,8.93-.54,12.83-1.35,8.66-1.78,13.12-7.71,12.48-16M407.23,23.33c-2.99.36-6.04.07-10.21.07-.31-5.57-.8-10.2.26-14.96,3.8-1.61,7.44-1.23,11.06-.17,3.67,1.07,5.81,3.48,5.65,7.46-.16,4.33-2.46,7.09-6.75,7.6"/>
</svg>